HIERARCHY
ROOT Pelvis
{
	OFFSET 0.000000 0.000000 0.000000
	CHANNELS 6 Xposition Yposition Zposition Xrotation Yrotation Zrotation
	JOINT LeftUpLeg_virtual
	{
		OFFSET 0.000000 0.000000 0.000000
		CHANNELS 3 Xrotation Yrotation Zrotation
		JOINT LeftUpLeg
		{
			OFFSET 18.735201 -5.666702 -4.541200
			CHANNELS 3 Xrotation Yrotation Zrotation
			JOINT LeftLeg
			{
				OFFSET -0.021200 -31.938179 0.493100
				CHANNELS 3 Xrotation Yrotation Zrotation
				JOINT LeftFoot
				{
					OFFSET 0.021200 -31.938179 -4.336299
					CHANNELS 3 Xrotation Yrotation Zrotation
					JOINT LeftToeBase
					{
						OFFSET 0.943001 -26.722000 15.023500
						CHANNELS 3 Xrotation Yrotation Zrotation
						End Site
						{
							OFFSET 0 0 0
						}
					}
				}
			}
		}
	}
	JOINT RightUpLeg_virtual
	{
		OFFSET 0.000000 0.000000 0.000000
		CHANNELS 3 Xrotation Yrotation Zrotation
		JOINT RightUpLeg
		{
			OFFSET -18.735201 -5.666702 -4.541200
			CHANNELS 3 Xrotation Yrotation Zrotation
			JOINT RightLeg
			{
				OFFSET 0.018946 -31.938133 0.493100
				CHANNELS 3 Xrotation Yrotation Zrotation
				JOINT RightFoot
				{
					OFFSET -0.018946 -31.938126 -4.336299
					CHANNELS 3 Xrotation Yrotation Zrotation
					JOINT RightToeBase
					{
						OFFSET -0.943001 -26.722004 15.023500
						CHANNELS 3 Xrotation Yrotation Zrotation
						End Site
						{
							OFFSET 0 0 0
						}
					}
				}
			}
		}
	}
	JOINT Hips_virtual
	{
		OFFSET 0.000000 0.000000 0.000000
		CHANNELS 3 Xrotation Yrotation Zrotation
		JOINT Hips
		{
			OFFSET -0.000000 -0.000000 -0.000000
			CHANNELS 3 Xrotation Yrotation Zrotation
			JOINT Spine
			{
				OFFSET 0.000000 10.199997 -0.299500
				CHANNELS 3 Xrotation Yrotation Zrotation
				JOINT Spine1
				{
					OFFSET 0.000000 11.900002 -1.516600
					CHANNELS 3 Xrotation Yrotation Zrotation
					JOINT Spine2
					{
						OFFSET 0.000000 13.600006 -2.842500
						CHANNELS 3 Xrotation Yrotation Zrotation
						JOINT Neck_virtual
						{
							OFFSET 0.000000 0.000000 0.000000
							CHANNELS 3 Xrotation Yrotation Zrotation
							JOINT Neck
							{
								OFFSET 0.000000 9.624100 -2.890100
								CHANNELS 3 Xrotation Yrotation Zrotation
								JOINT Head
								{
									OFFSET 0.000000 14.068802 -1.351900
									CHANNELS 3 Xrotation Yrotation Zrotation
									End Site
									{
										OFFSET 0 0 0
									}
								}
							}
						}
						JOINT LeftShoulder_virtual
						{
							OFFSET 0.000000 0.000000 0.000000
							CHANNELS 3 Xrotation Yrotation Zrotation
							JOINT LeftShoulder
							{
								OFFSET 15.263000 10.923401 -0.547700
								CHANNELS 3 Xrotation Yrotation Zrotation
								JOINT LeftArm
								{
									OFFSET 25.438599 -2.830597 -13.032500
									CHANNELS 3 Xrotation Yrotation Zrotation
									JOINT LeftForeArm
									{
										OFFSET 29.960503 0.000000 0.000000
										CHANNELS 3 Xrotation Yrotation Zrotation
										JOINT LeftHand
										{
											OFFSET 27.849251 0.000000 0.000000
											CHANNELS 3 Xrotation Yrotation Zrotation
											End Site
											{
												OFFSET 0 0 0
											}
										}
									}
								}
							}
						}
						JOINT RightShoulder_virtual
						{
							OFFSET 0.000000 0.000000 0.000000
							CHANNELS 3 Xrotation Yrotation Zrotation
							JOINT RightShoulder
							{
								OFFSET -15.263000 10.923401 -0.547700
								CHANNELS 3 Xrotation Yrotation Zrotation
								JOINT RightArm
								{
									OFFSET -25.438599 -2.830597 -13.032500
									CHANNELS 3 Xrotation Yrotation Zrotation
									JOINT RightForeArm
									{
										OFFSET -29.960503 0.000000 0.000000
										CHANNELS 3 Xrotation Yrotation Zrotation
										JOINT RightHand
										{
											OFFSET -27.849251 0.000000 0.000000
											CHANNELS 3 Xrotation Yrotation Zrotation
											End Site
											{
												OFFSET 0 0 0
											}
										}
									}
								}
							}
						}
					}
				}
			}
		}
	}
}
MOTION
Frames: 8
Frame Time: 0.03333333
1.006150 87.679909 5.229424 0.000000 0.000000 0.000000 5.323808 -6.823853 -1.204704 -45.496150 3.685614 23.143463 64.127198 6.890515 -1.787202 14.073005 6.616739 -13.901400 0.000000 0.000000 0.000000 5.323808 -6.823853 -1.204704 -34.217158 -6.399217 4.570836 49.462553 -1.723348 -1.148859 -22.636686 -5.421744 -3.771867 0.000000 0.000000 0.000000 5.323808 -6.823853 -1.204704 0.000000 0.000000 0.000000 9.161155 3.404428 5.116645 6.474934 1.246103 1.050139 0.000000 0.000000 0.000000 6.471420 1.202599 1.091237 0.852925 -0.239619 -0.556569 0.000000 0.000000 0.000000 6.471420 1.202599 1.091237 1.724437 -9.915035 -14.934996 -25.063145 2.043298 -69.542172 -0.000009 -31.031284 -0.000025 0.000000 0.000000 0.000000 6.471420 1.202599 1.091237 4.830913 17.858059 5.566074 -15.198214 0.576453 66.754984 0.000002 21.881886 0.000010 0.000000 0.000000 0.000000 
0.824969 87.906418 5.440105 0.000000 0.000000 0.000000 5.371096 -6.815419 -0.654637 -46.264918 5.513107 22.917231 62.840418 7.947239 -1.834169 13.724843 3.858103 -12.641407 0.000000 0.000000 0.000000 5.371096 -6.815419 -0.654637 -34.054671 -6.220075 4.048771 49.233646 -2.391838 -1.133745 -22.600008 -4.622566 -3.502223 0.000000 0.000000 0.000000 5.371096 -6.815419 -0.654637 0.000000 -0.000001 0.000000 9.131545 3.434980 5.095116 6.458227 1.270575 1.050138 0.000000 0.000000 0.000000 6.454851 1.219981 1.086655 0.853093 -0.257100 -0.549878 0.000000 0.000000 0.000000 6.454851 1.219981 1.086655 1.707811 -9.871292 -14.933498 -24.720365 1.875866 -69.543388 -0.000018 -31.071808 -0.000043 0.000000 0.000000 0.000000 6.454851 1.219981 1.086655 4.783115 17.784935 5.634551 -15.255327 -0.757015 66.514486 0.000001 21.916137 -0.000001 0.000000 0.000000 0.000000 
0.454718 88.329254 5.939648 0.000000 0.000000 0.000000 5.436484 -6.708141 0.187674 -46.649335 7.371950 20.387357 60.447857 8.163523 -1.863579 11.595951 1.327794 -10.993493 0.000000 0.000000 0.000000 5.436484 -6.708141 0.187674 -33.313011 -5.909983 3.418165 48.624817 -3.198266 -1.113270 -22.882034 -3.741095 -3.281884 0.000000 0.000000 0.000000 5.436484 -6.708141 0.187674 0.000000 0.000000 0.000000 9.046703 3.504327 5.003876 6.408332 1.343090 1.038725 0.000000 0.000000 0.000000 6.405869 1.274518 1.063852 0.853406 -0.299986 -0.549389 0.000000 0.000000 0.000000 6.405869 1.274518 1.063852 1.665944 -9.745071 -14.916925 -24.239260 1.601049 -69.677150 0.000003 -31.120869 0.000022 0.000000 0.000000 0.000000 6.405869 1.274518 1.063852 4.647963 17.576327 5.828753 -15.030451 -2.293400 66.012966 -0.000004 22.078580 0.000015 0.000000 0.000000 0.000000 
0.103989 88.856865 6.712433 0.000000 0.000000 0.000000 5.507660 -6.546945 1.199622 -46.688704 9.141729 17.500497 56.309244 7.882175 -1.855251 9.187340 0.031912 -8.635914 0.000000 0.000000 0.000000 5.507660 -6.546945 1.199622 -32.226082 -5.463800 2.593214 47.816993 -4.038887 -1.089012 -23.331448 -2.874877 -2.949542 0.000000 0.000000 0.000000 5.507660 -6.546945 1.199622 0.000000 0.000000 0.000000 8.911005 3.600498 4.850244 6.327512 1.454023 1.012416 0.000000 0.000000 0.000000 6.326469 1.357847 1.019103 0.853808 -0.360805 -0.554041 0.000000 0.000000 0.000000 6.326469 1.357847 1.019103 1.601748 -9.544019 -14.888631 -23.625387 1.258200 -69.819328 -0.000006 -31.187518 -0.000009 0.000000 0.000000 0.000000 6.326469 1.357847 1.019103 4.438750 17.247903 6.131085 -14.574165 -3.934999 65.353941 0.000001 22.347039 0.000008 0.000000 0.000000 0.000000 
-0.199549 89.383980 7.746765 0.000000 0.000000 0.000000 5.573371 -6.381447 2.227596 -46.616946 10.706018 14.031824 50.090855 6.780856 -1.756952 8.035090 -0.091191 -4.768844 0.000000 0.000000 0.000000 5.573371 -6.381447 2.227596 -30.868941 -4.969379 1.685212 46.978249 -4.857408 -1.065667 -24.012000 -2.062177 -2.500908 0.000000 0.000000 0.000000 5.573371 -6.381447 2.227596 0.000000 0.000000 0.000000 8.727006 3.724664 4.668272 6.217595 1.595876 0.971856 0.000000 0.000000 0.000000 6.218342 1.466277 0.954853 0.854407 -0.432147 -0.563306 0.000000 0.000000 0.000000 6.218342 1.466277 0.954853 1.519700 -9.275785 -14.847875 -22.884195 0.887901 -69.845221 0.000004 -31.267377 0.000015 0.000000 0.000000 0.000000 6.218342 1.466277 0.954853 4.169614 16.815092 6.523480 -13.924115 -5.585395 64.641272 0.000002 22.704510 0.000002 0.000000 0.000000 0.000000 
-0.437911 89.810852 9.028904 0.000000 0.000000 0.000000 5.624359 -6.245287 3.118169 -45.997325 10.789362 12.156835 41.146808 4.733921 -1.729111 10.151819 -0.025697 -6.378858 0.000000 0.000000 0.000000 5.624359 -6.245287 3.118169 -29.325147 -4.515061 0.824365 46.250605 -5.603908 -1.045873 -24.945278 -1.342207 -1.951318 0.000000 0.000000 0.000000 5.624359 -6.245287 3.118169 0.000001 0.000000 0.000000 8.497104 3.878892 4.490351 6.080542 1.760887 0.914892 0.000000 0.000000 0.000000 6.083300 1.595058 0.870177 0.855034 -0.506464 -0.576362 0.000000 0.000000 0.000000 6.083300 1.595058 0.870177 1.424252 -8.948053 -14.793869 -22.022936 0.531215 -69.629762 -0.000012 -31.355851 -0.000021 0.000000 0.000000 0.000000 6.083300 1.595058 0.870177 3.854861 16.293281 6.987754 -13.103456 -7.147926 63.979181 -0.000003 23.163171 -0.000009 0.000000 0.000000 0.000000 
-0.643456 90.200905 10.385956 0.000000 0.000000 0.000000 5.652230 -6.125496 3.789068 -43.909941 10.583775 9.755193 35.029896 4.898399 -1.738888 6.104005 0.206754 -5.886294 0.000000 0.000000 0.000000 5.652230 -6.125496 3.789068 -27.552061 -4.172043 0.148681 45.260675 -6.243595 -1.030584 -25.799926 -0.742260 -1.415093 0.000000 0.000000 0.000000 5.652230 -6.125496 3.789068 0.000000 0.000000 0.000000 8.228273 4.038813 4.277695 5.918311 1.941296 0.839355 0.000000 0.000000 0.000000 5.923182 1.739444 0.764146 0.854307 -0.576384 -0.591898 0.000000 0.000000 0.000000 5.923182 1.739444 0.764146 1.319747 -8.568489 -14.725830 -21.052695 0.229614 -69.048090 -0.000008 -31.430604 -0.000032 0.000000 0.000000 0.000000 5.923182 1.739444 0.764146 3.508400 15.698061 7.506025 -12.122138 -8.524773 63.472340 0.000001 23.782283 0.000000 0.000000 0.000000 0.000000 
-0.779530 90.455368 11.922443 0.000000 0.000000 0.000000 5.651828 -6.062992 4.083089 -41.578575 9.677638 7.992506 28.978573 5.881673 -1.792038 2.950063 0.513694 -5.356215 0.000000 0.000000 0.000000 5.651828 -6.062992 4.083089 -25.505841 -3.999328 -0.226769 44.144018 -6.726965 -1.017449 -26.736301 -0.268269 -0.871195 0.000000 0.000000 0.000000 5.651828 -6.062992 4.083089 0.000000 0.000000 0.000000 7.922490 4.219945 4.064520 5.732920 2.129343 0.743102 0.000000 0.000000 0.000000 5.739881 1.894678 0.635824 0.850182 -0.634388 -0.609560 0.000000 0.000000 0.000000 5.739881 1.894678 0.635824 1.210485 -8.144779 -14.643109 -19.990862 0.025139 -67.975634 -0.000015 -31.503827 -0.000031 0.000000 0.000000 0.000000 5.739881 1.894678 0.635824 3.143290 15.045440 8.061036 -10.980890 -9.615679 63.225080 0.000005 24.596360 -0.000023 0.000000 0.000000 0.000000 
